<svg id="Layer_1_copy" data-name="Layer 1 copy" xmlns="http://www.w3.org/2000/svg" viewBox="0 0 466.12 46.06"><defs><style>.cls-1{fill:#fff;}.cls-1,.cls-2{stroke:#000;stroke-miterlimit:10;stroke-width:2px;}.cls-2{fill:none;}</style></defs><title>logos_AA-wb</title><path d="M185.75,323.42H173.5l-3.14,6.93h-4.73L179.91,300l13.59,30.36h-4.73ZM184,319.3l-4.25-9.72-4.43,9.72Z" transform="translate(-59.88 -291.72)"/><path d="M196.59,301.67l8,20,8-20h4.73L204.59,332.2l-12.73-30.53Z" transform="translate(-59.88 -291.72)"/><path d="M235.81,323.42H223.55l-3.14,6.93h-4.73L230,300l13.59,30.36h-4.73ZM234,319.3l-4.25-9.72-4.43,9.72Z" transform="translate(-59.88 -291.72)"/><path d="M251.54,301.67v24.55H260v4.13H247.16V301.67Z" transform="translate(-59.88 -291.72)"/><path d="M291.28,316a14.92,14.92,0,1,1-14.92-14.88A14.55,14.55,0,0,1,291.28,316Zm-4.39,0c0-6.37-4.39-10.84-10.53-10.84s-10.54,4.47-10.54,10.84,4.39,10.83,10.54,10.83S286.89,322.39,286.89,316Z" transform="translate(-59.88 -291.72)"/><path d="M296.78,330.35V299.73l20.81,21.8V301.67H322v30.44l-20.81-21.8v20Z" transform="translate(-59.88 -291.72)"/><path d="M344,301.67c3.49,0,5.72.43,7.57,1.67a8,8,0,0,1,3.4,6.75,7.87,7.87,0,0,1-6.37,8l9,12.26h-5.29L344,318.61h-.78v11.74h-4.38V301.67Zm-.73,13.15h1.38c1.2,0,6.1-.12,6.1-4.68,0-4-3.82-4.43-6-4.43h-1.51Z" transform="translate(-59.88 -291.72)"/><path d="M377.66,305.79H366.22v7.27h11.1v4.13h-11.1v9h11.44v4.13H361.84V301.67h15.82Z" transform="translate(-59.88 -291.72)"/><path d="M395.72,308a4.51,4.51,0,0,0-1.29-1.81,4.57,4.57,0,0,0-3.09-1c-2.67,0-4,1.59-4,3.44,0,.86.31,2.37,3.1,3.49l2.88,1.16c5.29,2.15,6.75,5.16,6.75,8.42a8.84,8.84,0,0,1-9.24,9.21A8.4,8.4,0,0,1,384,328a9.31,9.31,0,0,1-2.41-5.6l4.34-.94a6.16,6.16,0,0,0,1.21,3.65,4.49,4.49,0,0,0,3.74,1.72,4.61,4.61,0,0,0,4.73-4.81c0-2.93-2.24-4.13-4.13-4.9L388.76,316c-2.37-1-5.85-3-5.85-7.26,0-3.87,3-7.57,8.38-7.57a8.46,8.46,0,0,1,5.76,1.93,9.65,9.65,0,0,1,2.2,2.89Z" transform="translate(-59.88 -291.72)"/><path d="M409.91,301.67v28.68h-4.38V301.67Z" transform="translate(-59.88 -291.72)"/><path d="M421.18,301.67v24.55h8.43v4.13H416.79V301.67Z" transform="translate(-59.88 -291.72)"/><path d="M438.12,301.67v28.68h-4.39V301.67Z" transform="translate(-59.88 -291.72)"/><path d="M460.82,305.79H449.38v7.27h11.1v4.13h-11.1v9h11.44v4.13H445V301.67h15.82Z" transform="translate(-59.88 -291.72)"/><path d="M466.5,330.35V299.73l20.81,21.8V301.67h4.39v30.44l-20.82-21.8v20Z" transform="translate(-59.88 -291.72)"/><path d="M506.53,305.79v24.56h-4.39V305.79h-6.57v-4.12h17.54v4.12Z" transform="translate(-59.88 -291.72)"/><polygon class="cls-1" points="26.14 1.78 50.55 1.78 38.35 22.92 26.14 44.06 13.94 22.92 1.73 1.78 26.14 1.78"/><polygon class="cls-1" points="82.81 1.78 107.22 1.78 95.02 22.92 82.81 44.06 70.6 22.92 58.4 1.78 82.81 1.78"/><polygon class="cls-1" points="54.48 44.28 30.07 44.28 42.27 23.14 54.48 2 66.68 23.14 78.89 44.28 54.48 44.28"/><polygon class="cls-2" points="465.12 44.28 87.12 44.28 110.56 2.28 465.12 2.28 465.12 44.28"/></svg>