<svg id="Layer_1" data-name="Layer 1" xmlns="http://www.w3.org/2000/svg" viewBox="0 0 471.93 44"><defs><style>.color{fill:#00ff00;}.cls-1{fill:#111;stroke:#111;}.cls-1,.cls-2{stroke-miterlimit:10;stroke-width:2px;}.cls-2,.cls-3{fill:#fff;}.cls-2{stroke:#000;}</style></defs><title>logos_AA-bw</title><polygon class="cls-1" points="470.94 43 1.94 43 31.71 1 470.94 1 470.94 43"/><polygon class="cls-2" points="52.22 4 72.9 4 62.56 21.91 52.22 39.81 41.88 21.91 31.55 4 52.22 4"/><polygon class="cls-2" points="100.22 4 120.9 4 110.56 21.91 100.22 39.81 89.89 21.91 79.55 4 100.22 4"/><polygon class="cls-2" points="76.22 40 55.55 40 65.89 22.09 76.22 4.18 86.56 22.09 96.9 40 76.22 40"/><path class="cls-3" d="M185.75,382.42H173.5l-3.14,6.93h-4.73L179.91,359l13.59,30.36h-4.73ZM184,378.3l-4.25-9.72-4.43,9.72Z" transform="translate(-54.07 -352)"/><path class="cls-3" d="M196.59,360.67l8,20,8-20h4.73L204.59,391.2l-12.73-30.53Z" transform="translate(-54.07 -352)"/><path class="cls-3" d="M235.81,382.42H223.55l-3.14,6.93h-4.73L230,359l13.59,30.36h-4.73ZM234,378.3l-4.25-9.72-4.43,9.72Z" transform="translate(-54.07 -352)"/><path class="cls-3" d="M251.54,360.67v24.55H260v4.13H247.16V360.67Z" transform="translate(-54.07 -352)"/><path class="cls-3" d="M291.28,375a14.92,14.92,0,1,1-14.92-14.88A14.55,14.55,0,0,1,291.28,375Zm-4.39,0c0-6.37-4.39-10.84-10.53-10.84s-10.54,4.47-10.54,10.84,4.39,10.83,10.54,10.83S286.89,381.39,286.89,375Z" transform="translate(-54.07 -352)"/><path class="cls-3" d="M296.78,389.35V358.73l20.81,21.8V360.67H322v30.44l-20.81-21.8v20Z" transform="translate(-54.07 -352)"/><path class="cls-3" d="M344,360.67c3.49,0,5.72.43,7.57,1.67a8,8,0,0,1,3.4,6.75,7.87,7.87,0,0,1-6.37,8l9,12.26h-5.29L344,377.61h-.78v11.74h-4.38V360.67Zm-.73,13.15h1.38c1.2,0,6.1-.12,6.1-4.68,0-4-3.82-4.43-6-4.43h-1.51Z" transform="translate(-54.07 -352)"/><path class="cls-3" d="M377.66,364.79H366.22v7.27h11.1v4.13h-11.1v9h11.44v4.13H361.84V360.67h15.82Z" transform="translate(-54.07 -352)"/><path class="cls-3" d="M395.72,367a4.51,4.51,0,0,0-1.29-1.81,4.57,4.57,0,0,0-3.09-1c-2.67,0-4,1.59-4,3.44,0,.86.31,2.37,3.1,3.49l2.88,1.16c5.29,2.15,6.75,5.16,6.75,8.42a8.84,8.84,0,0,1-9.24,9.21A8.4,8.4,0,0,1,384,387a9.31,9.31,0,0,1-2.41-5.6l4.34-.94a6.16,6.16,0,0,0,1.21,3.65,4.49,4.49,0,0,0,3.74,1.72,4.61,4.61,0,0,0,4.73-4.81c0-2.93-2.24-4.13-4.13-4.9L388.76,375c-2.37-1-5.85-3-5.85-7.26,0-3.87,3-7.57,8.38-7.57a8.46,8.46,0,0,1,5.76,1.93,9.65,9.65,0,0,1,2.2,2.89Z" transform="translate(-54.07 -352)"/><path class="cls-3" d="M409.91,360.67v28.68h-4.38V360.67Z" transform="translate(-54.07 -352)"/><path class="cls-3" d="M421.18,360.67v24.55h8.43v4.13H416.79V360.67Z" transform="translate(-54.07 -352)"/><path class="cls-3" d="M438.12,360.67v28.68h-4.39V360.67Z" transform="translate(-54.07 -352)"/><path class="cls-3" d="M460.82,364.79H449.38v7.27h11.1v4.13h-11.1v9h11.44v4.13H445V360.67h15.82Z" transform="translate(-54.07 -352)"/><path class="cls-3" d="M466.5,389.35V358.73l20.81,21.8V360.67h4.39v30.44l-20.82-21.8v20Z" transform="translate(-54.07 -352)"/><path class="cls-3" d="M506.53,364.79v24.56h-4.39V364.79h-6.57v-4.12h17.54v4.12Z" transform="translate(-54.07 -352)"/></svg>